<svg width="124" height="46" viewBox="0 0 124 46" fill="none" xmlns="http://www.w3.org/2000/svg">
<g clip-path="url(#clip0_340_1628)">
<path d="M30.0258 0.65271H8.93116C4.38552 0.65271 0.699097 4.33812 0.699097 8.88252V30.2286C0.699097 34.773 4.38552 38.4584 8.93116 38.4584H16.4069C17.2018 38.4584 18.3852 38.6642 19.3884 38.8776C19.8875 38.9831 20.3326 39.0885 20.6567 39.1682C20.8188 39.2068 20.9474 39.2402 21.0374 39.2634C21.0812 39.2737 21.1172 39.284 21.1403 39.2891C21.1506 39.2917 21.1583 39.2943 21.1635 39.2943C21.1712 39.2943 21.1815 39.2994 21.1944 39.3045C21.2227 39.3148 21.2638 39.3303 21.3178 39.3483C21.4259 39.3868 21.5854 39.446 21.7886 39.518C22.1951 39.6646 22.7765 39.8755 23.4813 40.1327C24.8911 40.6445 26.7922 41.3337 28.7601 42.0461C32.6935 43.4735 36.8816 44.996 37.908 45.3817L38.2553 45.5129V8.88252C38.2553 4.33812 34.5689 0.65271 30.0232 0.65271H30.0258Z" fill="#1D1D1D"/>
<path d="M61.9949 18.2613C62.1492 18.6651 62.2779 18.9171 62.373 19.1023C62.4682 19.2875 62.6457 19.4932 62.8953 19.7247C63.1448 19.9562 63.4998 20.1979 63.95 20.4499V20.6094H56.0421V20.4499C56.6698 20.1516 57.1097 19.8841 57.3463 19.6527C57.583 19.4212 57.7013 19.1589 57.7013 18.8554C57.7013 18.5519 57.5701 18.0582 57.3077 17.3329L56.4434 14.9565H50.9536L50.753 15.4992C50.2565 16.9188 50.0069 17.8627 50.0069 18.3385C50.0069 18.8143 50.151 19.1692 50.434 19.4804C50.717 19.7916 51.2057 20.1156 51.9055 20.4499V20.6094H46.7476V20.4499C47.5888 19.7916 48.2062 19.146 48.5972 18.5237C48.9882 17.9013 49.4256 16.9446 49.9118 15.6535L53.3023 6.48499L52.438 4.83388C53.9429 4.28094 55.152 3.69199 56.0781 3.05933L61.982 18.2253L61.9949 18.2613ZM56.0421 13.8224L53.7062 7.42113L51.3832 13.8224H56.0446H56.0421Z" fill="#1D1D1D"/>
<path d="M64.3327 20.4529C64.9475 20.1418 65.3411 19.8434 65.5058 19.5528C65.6704 19.2648 65.7553 18.699 65.7553 17.8451V7.17723C65.7553 6.42883 65.6936 5.85017 65.5906 5.45925C65.4852 5.06834 65.354 4.80087 65.2099 4.66199C65.0659 4.52311 64.77 4.31479 64.3327 4.02675V3.8673C66.1463 3.73871 67.8673 3.44038 69.4906 2.96716V17.8451C69.4906 18.699 69.5729 19.2648 69.7401 19.5528C69.9073 19.8409 70.2984 20.1418 70.9003 20.4529V20.6124H64.3198L64.3327 20.4529Z" fill="#1D1D1D"/>
<path d="M91.3418 17.8242C91.3418 18.678 91.4241 19.2438 91.5913 19.5318C91.7585 19.8199 92.1495 20.1208 92.7644 20.432V20.5914H86.1839V20.432C86.8347 20.0976 87.2386 19.7865 87.393 19.4984C87.5473 19.2104 87.6425 18.6574 87.6759 17.8396C87.6888 17.2044 87.6991 15.579 87.6991 12.9506C87.6991 12.2253 87.5216 11.6827 87.1794 11.3123C86.8347 10.942 86.4205 10.7594 85.9343 10.7594C85.1626 10.7594 84.4757 11.2429 83.8712 12.2022V17.8422C83.8712 18.696 83.9535 19.2618 84.1207 19.5498C84.2879 19.8379 84.6789 20.1362 85.2938 20.45V20.6094H78.7133V20.45C79.3281 20.1388 79.7346 19.8405 79.9095 19.5498C80.087 19.2618 80.1822 18.696 80.1925 17.8422C80.2053 17.4024 80.2156 16.2502 80.2156 14.3702C80.2156 12.9403 80.0973 11.981 79.858 11.5001C79.6214 11.0166 79.1943 10.7748 78.5795 10.7748C77.7023 10.7748 76.9691 11.2583 76.3749 12.2382V17.8524C76.3749 18.7063 76.4572 19.2721 76.6244 19.5601C76.789 19.8482 77.1698 20.1465 77.764 20.4603V20.6197H71.2092V20.4603C71.8241 20.1491 72.2177 19.8507 72.3823 19.5601C72.5469 19.2721 72.6318 18.7063 72.6318 17.8524V13.0432C72.6318 12.0067 72.5495 11.3123 72.3823 10.9651C72.2151 10.6179 71.8241 10.263 71.2092 9.90554V9.74608C72.8556 9.6535 74.5535 9.35517 76.2848 8.84595V11.4178C77.3498 9.7358 78.703 8.89224 80.3391 8.89224C81.062 8.89224 81.7617 9.0877 82.4383 9.48119C83.1148 9.87467 83.5522 10.5176 83.7425 11.4075C84.8204 9.72551 86.1839 8.88195 87.82 8.88195C88.1879 8.88195 88.566 8.93853 88.9468 9.05426C89.3275 9.17 89.7057 9.34231 90.0735 9.57377C90.4414 9.80523 90.7501 10.1627 90.9868 10.6462C91.2234 11.1297 91.3418 11.7058 91.3418 12.3642V17.8319H91.3366L91.3418 17.8242Z" fill="#1D1D1D"/>
<path d="M103.433 20.9103C102.569 20.9103 101.961 20.6556 101.619 20.149C101.277 19.6423 101.123 19.0534 101.156 18.395H101.133C100.778 19.0534 100.233 19.6269 99.4841 20.1258C98.7381 20.6222 97.8711 20.864 96.8884 20.864C95.9057 20.864 95.1108 20.6094 94.5191 20.1027C93.9249 19.5961 93.629 18.9377 93.629 18.1404C93.629 16.9754 94.2799 15.9955 95.5713 15.2008C96.8627 14.4061 98.7355 13.7015 101.179 13.0919L101.228 11.2248C101.241 10.7747 101.133 10.371 100.909 10.0238C100.683 9.67656 100.328 9.50425 99.8417 9.50425C99.1188 9.50425 98.5374 9.88488 98.1104 10.6461C97.6833 11.4074 97.3978 12.305 97.246 13.3465L97.1277 13.3697L94.5551 11.8575C94.9925 11.0602 95.6948 10.371 96.6646 9.79229C97.637 9.21363 98.8461 8.92816 100.282 8.92816C101.195 8.92816 101.967 9.05675 102.594 9.2985C103.222 9.54025 103.685 9.87716 103.981 10.3015C104.277 10.7284 104.477 11.1554 104.588 11.5926C104.693 12.0323 104.742 12.4927 104.732 12.9891L104.614 18.5956C104.614 19.1151 104.804 19.3697 105.195 19.3569C105.632 19.3569 105.99 19.0457 106.26 18.4233L106.461 18.5159C106.247 19.1614 105.879 19.7169 105.357 20.167C104.837 20.6171 104.254 20.918 103.459 20.918H103.435V20.9128L103.433 20.9103ZM98.949 18.8914C99.7208 18.8914 100.431 18.5005 101.084 17.7161L101.179 13.6089C98.7252 14.347 97.493 15.512 97.493 17.1014C97.493 17.6672 97.6242 18.1044 97.8943 18.4182C98.1695 18.7294 98.522 18.8811 98.9619 18.8811L98.949 18.8939V18.8914Z" fill="#1D1D1D"/>
<path d="M55.8358 26.7974C54.7322 26.7974 53.7907 27.4764 52.9263 28.7932C52.0619 30.1074 51.6349 32.08 51.6349 34.7109C51.6349 37.3419 52.0748 39.4045 52.952 40.801C53.8293 42.1975 54.8248 42.8867 55.9284 42.8867C56.8545 42.8867 57.8269 42.4135 58.8431 41.4568C59.8644 40.5001 60.8111 39.3582 61.6883 38.0209H61.8529L61.3667 42.8404C59.4811 43.3599 57.6083 43.6248 55.7458 43.6248C54.5856 43.6248 53.5051 43.4628 52.4993 43.131C51.4908 42.7967 50.5905 42.3004 49.7853 41.6317C48.9775 40.963 48.3395 40.0629 47.8764 38.9313C47.4134 37.8022 47.187 36.5112 47.187 35.0555C47.187 32.2188 47.9948 30.0148 49.618 28.4485C51.2413 26.8797 53.3045 26.0953 55.8075 26.0953C57.3485 26.0953 59.1981 26.3602 61.3667 26.8797L61.8529 31.6196H61.6883C59.4939 28.4023 57.5646 26.7974 55.8924 26.7974H55.8384H55.8358Z" fill="#1D1D1D"/>
<path d="M73.0795 43.5891C72.2151 43.5891 71.608 43.3345 71.2659 42.8278C70.9237 42.3212 70.7694 41.7322 70.8028 41.0739H70.7771C70.4221 41.7322 69.8767 42.3058 69.1307 42.8047C68.3847 43.301 67.5177 43.5428 66.535 43.5428C65.5523 43.5428 64.7574 43.2882 64.1657 42.7815C63.5715 42.2749 63.2756 41.6165 63.2756 40.8192C63.2756 39.6542 63.9265 38.6743 65.2205 37.8797C66.5119 37.085 68.3847 36.3803 70.8285 35.7708L70.8774 33.9036C70.8903 33.4536 70.7822 33.0498 70.5584 32.7026C70.3321 32.3554 69.977 32.1831 69.4908 32.1831C68.768 32.1831 68.1866 32.5637 67.7595 33.325C67.3325 34.0862 67.0469 34.9838 66.8952 36.0254L66.7768 36.0485L64.2043 34.5363C64.6442 33.739 65.3439 33.0498 66.3164 32.4711C67.2888 31.8925 68.4978 31.607 69.9333 31.607C70.8466 31.607 71.6183 31.7356 72.246 31.9773C72.8737 32.2191 73.3368 32.556 73.6326 32.9803C73.9284 33.4073 74.1291 33.8342 74.2397 34.2714C74.3452 34.7112 74.3941 35.1715 74.3812 35.6679L74.2629 41.2745C74.2629 41.794 74.4532 42.0486 74.8443 42.0357C75.2816 42.0357 75.6392 41.7245 75.9093 41.1021L76.1099 41.1947C75.8964 41.8403 75.5285 42.3958 75.0063 42.8458C74.4867 43.2959 73.9027 43.5968 73.1078 43.5968H73.0847V43.5917L73.0795 43.5891ZM68.5956 41.5702C69.3674 41.5702 70.0774 41.1793 70.7308 40.3949L70.826 36.2877C68.3718 37.0258 67.1396 38.1908 67.1396 39.7828C67.1396 40.3486 67.2708 40.7858 67.5409 41.097C67.8161 41.4082 68.1274 41.5702 68.5673 41.5702H68.5982H68.5956Z" fill="#1D1D1D"/>
<path d="M76.3414 43.1494C76.9562 42.8382 77.3498 42.5399 77.5145 42.2493C77.6791 41.9612 77.764 41.3954 77.764 40.5416V35.5368C77.764 34.6264 77.6817 33.9912 77.5016 33.6337C77.3241 33.2762 76.9331 32.9316 76.3285 32.5972V32.4378C78.0135 32.3452 79.7063 32.0469 81.4041 31.5377L81.3552 33.9012H81.4041C81.6176 33.3122 82.0087 32.7824 82.5772 32.2989C83.1457 31.8154 83.8686 31.5737 84.733 31.5737C85.1343 31.5737 85.515 31.6663 85.8726 31.8386L85.3864 35.632H85.2217C84.2004 34.3409 83.3489 33.6954 82.6466 33.7057C82.1501 33.7057 81.7566 33.9937 81.4864 34.5698V40.521C81.4864 41.3749 81.5919 41.9407 81.8054 42.2287C82.0189 42.5167 82.5283 42.8176 83.3335 43.1288V43.2883H76.3157L76.3388 43.1494H76.3414Z" fill="#1D1D1D"/>
<path d="M97.5523 39.1939C97.4571 39.6439 97.3157 40.0837 97.1253 40.4978C96.9349 40.9118 96.6622 41.3748 96.2969 41.8711C95.9316 42.3649 95.4068 42.7584 94.7328 43.0593C94.0563 43.3602 93.2742 43.5094 92.3841 43.5094C90.6528 43.5094 89.2199 42.9667 88.0674 41.8943C86.9175 40.8218 86.349 39.379 86.349 37.571C86.349 35.7631 86.9072 34.3537 88.0211 33.2452C89.135 32.1368 90.5834 31.5864 92.3584 31.5864C93.2845 31.5864 94.1 31.7459 94.8126 32.0699C95.5226 32.394 96.0577 32.7952 96.423 33.2813C96.7883 33.7673 97.0635 34.238 97.2308 34.7009C97.3954 35.1638 97.4803 35.601 97.4803 36.0048V36.2929H89.7164V36.6169C89.7164 38.1163 90.1435 39.2324 90.9847 39.9628C91.8259 40.6881 92.8343 41.0584 93.9971 41.0584C95.5741 41.0713 96.6982 40.4232 97.3748 39.1218L97.5523 39.2016V39.1939ZM91.9545 32.1908C91.3268 32.1908 90.8303 32.4891 90.4522 33.1115C90.074 33.7339 89.8451 34.598 89.7627 35.7065L94.1 35.6602C94.0871 35.313 94.0511 34.9684 93.9945 34.6237C93.9354 34.2765 93.8299 33.9088 93.6755 33.5153C93.5212 33.1244 93.2948 32.8003 92.999 32.5586C92.7031 32.3168 92.3584 32.1882 91.9674 32.1882H91.9519L91.9545 32.1908Z" fill="#1D1D1D"/>
<path d="M109.835 39.1939C109.74 39.6439 109.599 40.0837 109.408 40.4978C109.22 40.9118 108.945 41.3748 108.58 41.8711C108.215 42.3649 107.69 42.7584 107.016 43.0593C106.339 43.3602 105.557 43.5094 104.667 43.5094C102.936 43.5094 101.503 42.9667 100.35 41.8943C99.1979 40.8218 98.632 39.379 98.632 37.571C98.632 35.7631 99.1902 34.3537 100.304 33.2452C101.418 32.1368 102.866 31.5864 104.641 31.5864C105.567 31.5864 106.383 31.7459 107.096 32.0699C107.806 32.394 108.341 32.7952 108.709 33.2813C109.074 33.7673 109.349 34.238 109.516 34.7009C109.681 35.1638 109.766 35.601 109.766 36.0048V36.2929H102.002V36.6169C102.002 38.1163 102.429 39.2324 103.27 39.9628C104.111 40.6881 105.12 41.0584 106.283 41.0584C107.86 41.0713 108.984 40.4232 109.66 39.1218L109.838 39.2016L109.835 39.1939ZM104.237 32.1908C103.61 32.1908 103.113 32.4891 102.735 33.1115C102.357 33.7339 102.131 34.598 102.048 35.7065L106.386 35.6602C106.373 35.313 106.337 34.9658 106.28 34.6237C106.221 34.2765 106.115 33.9088 105.961 33.5153C105.807 33.1244 105.58 32.8003 105.284 32.5586C104.989 32.3168 104.644 32.1882 104.253 32.1882H104.237V32.1908Z" fill="#1D1D1D"/>
<path d="M110.477 43.1494C111.091 42.8382 111.485 42.5399 111.65 42.2493C111.814 41.9612 111.899 41.3954 111.899 40.5416V35.5368C111.899 34.6264 111.817 33.9912 111.637 33.6337C111.459 33.2762 111.068 32.9316 110.464 32.5972V32.4378C112.149 32.3452 113.841 32.0469 115.539 31.5377L115.49 33.9012H115.539C115.753 33.3122 116.144 32.7824 116.712 32.2989C117.278 31.8154 118.004 31.5737 118.868 31.5737C119.27 31.5737 119.65 31.6663 120.008 31.8386L119.522 35.632H119.357C118.336 34.3409 117.484 33.6954 116.784 33.7057C116.288 33.7057 115.894 33.9937 115.624 34.5698V40.521C115.624 41.3749 115.73 41.9407 115.943 42.2287C116.157 42.5167 116.666 42.8176 117.471 43.1288V43.2883H110.453L110.477 43.1494Z" fill="#1D1D1D"/>
<path d="M121.451 43.4835C120.918 43.4835 120.455 43.3009 120.064 42.9177C119.673 42.5345 119.483 42.0999 119.483 41.6009C119.483 41.102 119.684 40.6314 120.077 40.2533C120.471 39.8752 120.931 39.6875 121.464 39.6875C121.996 39.6875 122.436 39.8701 122.827 40.2533C123.218 40.6365 123.409 41.084 123.409 41.6009C123.409 42.1179 123.221 42.5474 122.827 42.9177C122.434 43.288 121.989 43.4835 121.466 43.4835H121.448H121.451Z" fill="#1D1D1D"/>
<path d="M12.4041 6.56726C15.6018 6.56726 18.1923 9.15708 18.1923 12.3538C18.1923 15.5506 15.6018 18.1404 12.4041 18.1404C9.20649 18.1404 6.61597 15.5506 6.61597 12.3538C6.61597 9.15708 9.20649 6.56726 12.4041 6.56726Z" fill="#FFCB3B"/>
<path d="M28.9965 19.9407C24.4817 19.9407 20.7902 23.4667 20.5252 27.9134L20.5072 28.4277V32.2855L32.3408 36.6575V19.9407H28.9965Z" fill="#4DD7BE"/>
<path d="M20.5072 6.56714H27.1958C30.0384 6.56714 32.3408 8.86891 32.3408 11.7108V18.1403H20.5072V6.56714Z" fill="#8F66FF"/>
<path d="M11.7608 32.2855H18.1843C18.1843 32.2006 18.1921 32.1157 18.1921 32.0283V28.4277C18.1921 23.7393 14.3924 19.9407 9.70275 19.9407H6.61572V27.1418C6.61572 29.9837 8.91813 32.2855 11.7608 32.2855Z" fill="#FD7E40"/>
</g>
<defs>
<clipPath id="clip0_340_1628">
<rect width="124" height="46" fill="white"/>
</clipPath>
</defs>
</svg>
