<svg xmlns="http://www.w3.org/2000/svg" xmlns:xlink="http://www.w3.org/1999/xlink" width="117" height="41.34" viewBox="0 0 117 41.34"><defs><style>.a{fill:none;}.b{clip-path:url(#a);}.c{fill:#e5087d;}.d{clip-path:url(#b);}.e{clip-path:url(#c);}.f{clip-path:url(#d);}.g{clip-path:url(#e);}.h{fill:#231f20;}.i{clip-path:url(#f);}.j{clip-path:url(#g);}.k{clip-path:url(#h);}.l{fill:#fff;}</style><clipPath id="a" transform="translate(0.01 0)"><rect class="a" y="4.12" width="23.4" height="37.22"/></clipPath><clipPath id="b" transform="translate(0.01 0)"><rect class="a" x="26.72" y="4.12" width="7.2" height="37.22"/></clipPath><clipPath id="c" transform="translate(0.01 0)"><rect class="a" x="40.01" y="14.09" width="7.2" height="27.26"/></clipPath><clipPath id="d" transform="translate(0.01 0)"><rect class="a" x="54.41" y="4.12" width="23.25" height="37.22"/></clipPath><clipPath id="e" transform="translate(0.01 0)"><rect class="a" x="86.52" y="25.71" width="14.95" height="15.63"/></clipPath><clipPath id="f" transform="translate(0.01 0)"><rect class="a" x="102.58" y="25.71" width="14.42" height="15.5"/></clipPath><clipPath id="g" transform="translate(0.01 0)"><rect class="a" x="37.24" width="12.73" height="12.42"/></clipPath><clipPath id="h" transform="translate(0.01 0)"><rect class="a" x="79.88" y="36.79" width="4.98" height="4.56"/></clipPath></defs><g class="b"><path class="c" d="M16.12,38.29l-5.88-9.63-3.6,3.4v5.29a4,4,0,0,1-1,2.95,3.14,3.14,0,0,1-2.33,1,3,3,0,0,1-2.41-1,4.49,4.49,0,0,1-.89-3V9A5.62,5.62,0,0,1,.85,5.59,2.79,2.79,0,0,1,3.32,4.43,3,3,0,0,1,5.75,5.48a4.69,4.69,0,0,1,.89,3.08V24.67l7.48-7.83a17.34,17.34,0,0,1,2.11-2A3,3,0,0,1,18,14.29a2.9,2.9,0,0,1,2.07.8,2.63,2.63,0,0,1,.83,2c0,1-.9,2.27-2.72,3.88l-3.52,3.23,6.82,10.75c.5.8.87,1.4,1.11,1.81a2.58,2.58,0,0,1,.33,1.18A3.47,3.47,0,0,1,22,40.42a3,3,0,0,1-2.28.91,2.51,2.51,0,0,1-1.88-.66A19.5,19.5,0,0,1,16.12,38.29Z" transform="translate(0.01 0)"/></g><g class="d"><path class="c" d="M26.92,37.3V8.5a4.45,4.45,0,0,1,.9-3,3,3,0,0,1,2.39-1.05,3.12,3.12,0,0,1,2.46,1,4.39,4.39,0,0,1,.93,3V37.27a4.34,4.34,0,0,1-.93,3,3.2,3.2,0,0,1-2.43,1,3,3,0,0,1-2.38-1A4.37,4.37,0,0,1,26.92,37.3Z" transform="translate(0.01 0)"/></g><g class="e"><path class="c" d="M43.74,14.33a3.07,3.07,0,0,0-2.38,1,4.22,4.22,0,0,0-.91,2.94v19a4.37,4.37,0,0,0,.92,3,3,3,0,0,0,2.37,1,3.15,3.15,0,0,0,2.41-1,4.29,4.29,0,0,0,1-3V18.09a3.83,3.83,0,0,0-1-2.76A3.14,3.14,0,0,0,43.74,14.33Z" transform="translate(0.01 0)"/></g><g class="f"><path class="c" d="M70.57,38.29l-5.88-9.63-3.61,3.4v5.29a4,4,0,0,1-1,2.95,3.17,3.17,0,0,1-2.33,1,3,3,0,0,1-2.41-1,4.54,4.54,0,0,1-.88-3V9a5.62,5.62,0,0,1,.85-3.37,2.84,2.84,0,0,1,2.43-1.16,3,3,0,0,1,2.43,1.05A4.58,4.58,0,0,1,61,8.56V24.67l7.5-7.83a17.34,17.34,0,0,1,2.11-2,3,3,0,0,1,1.78-.55,3,3,0,0,1,2.09.8,2.63,2.63,0,0,1,.83,2q0,1.47-2.7,3.88l-3.53,3.23,6.82,10.72c.51.8.87,1.39,1.11,1.81a2.55,2.55,0,0,1,.33,1.18,3.5,3.5,0,0,1-.86,2.49,3,3,0,0,1-2.33,1,2.56,2.56,0,0,1-1.88-.67A19.13,19.13,0,0,1,70.57,38.29Z" transform="translate(0.01 0)"/></g><g class="g"><path class="h" d="M101.07,36.6a3.3,3.3,0,0,1-.44,1.53,5,5,0,0,1-1.29,1.54,6.69,6.69,0,0,1-2.22,1.18,8.93,8.93,0,0,1-3,.45,7.37,7.37,0,0,1-5.54-2,7.59,7.59,0,0,1-2-5.54,8.94,8.94,0,0,1,.91-4.13,6.64,6.64,0,0,1,2.63-2.8A9,9,0,0,1,97,26.23a7.17,7.17,0,0,1,2.1,1.11,5.23,5.23,0,0,1,1.31,1.46,2.75,2.75,0,0,1,.45,1.45,1.57,1.57,0,0,1-.52,1.16,1.79,1.79,0,0,1-1.23.48,1.29,1.29,0,0,1-.8-.25,4.75,4.75,0,0,1-.7-.78,5.86,5.86,0,0,0-1.46-1.6,3.62,3.62,0,0,0-4.66.78,5.67,5.67,0,0,0-1,3.61,7.26,7.26,0,0,0,.27,2,4.33,4.33,0,0,0,.77,1.53,3.18,3.18,0,0,0,1.21,1,4.05,4.05,0,0,0,1.57.33,3.57,3.57,0,0,0,2-.53,4.63,4.63,0,0,0,1.45-1.66,4.09,4.09,0,0,1,.75-1,1.45,1.45,0,0,1,1-.36,1.49,1.49,0,0,1,1.17.55A1.72,1.72,0,0,1,101.07,36.6Z" transform="translate(0.01 0)"/></g><g class="i"><path class="h" d="M114.65,30.24l-7,7.75h7.45a2,2,0,0,1,1.39.43,1.41,1.41,0,0,1,.46,1.11,1.26,1.26,0,0,1-.46,1,2.1,2.1,0,0,1-1.39.42H104.78a2.41,2.41,0,0,1-1.66-.48,1.61,1.61,0,0,1-.55-1.31,1.63,1.63,0,0,1,.42-1c.25-.33.78-.94,1.58-1.82l2.3-2.54c.68-.77,1.33-1.47,1.91-2.12s1.08-1.24,1.46-1.67a11.19,11.19,0,0,0,.94-1.18h-5.74a5.52,5.52,0,0,1-1.71-.19,1,1,0,0,1-.58-1.07,1.27,1.27,0,0,1,.43-1,1.88,1.88,0,0,1,1.25-.38h8.78a4.14,4.14,0,0,1,1.86.35,1.32,1.32,0,0,1,.64,1.28,1.68,1.68,0,0,1-.12.63,2.42,2.42,0,0,1-.29.55,6.49,6.49,0,0,1-.42.51C115.12,29.74,114.92,30,114.65,30.24Z" transform="translate(0.01 0)"/></g><g class="j"><path class="h" d="M49.86,6.16a5.93,5.93,0,0,1-.12,1.19,6.38,6.38,0,0,1-.35,1.15,6.75,6.75,0,0,1-.55,1.07,6,6,0,0,1-.79.95,5.71,5.71,0,0,1-.93.76,6,6,0,0,1-1.06.56,6.74,6.74,0,0,1-1.16.35,7,7,0,0,1-1.2.11,6,6,0,0,1-1.2-.12,6.12,6.12,0,0,1-2.22-.92,5.13,5.13,0,0,1-.93-.74,5.29,5.29,0,0,1-.77-.93A5.33,5.33,0,0,1,38,8.53a6,6,0,0,1-.38-1.18,6.3,6.3,0,0,1,0-2.37A5.9,5.9,0,0,1,38,3.83a5.33,5.33,0,0,1,.55-1.06,5.71,5.71,0,0,1,.76-.93,6.79,6.79,0,0,1,.93-.77A6.17,6.17,0,0,1,42.47.16,5.68,5.68,0,0,1,43.7,0a6.11,6.11,0,0,1,1.2.12,5.34,5.34,0,0,1,1.16.35A5.33,5.33,0,0,1,47.12,1a5.71,5.71,0,0,1,.93.76,5.26,5.26,0,0,1,.77,1A6.15,6.15,0,0,1,49.74,5,5.83,5.83,0,0,1,49.86,6.16Z" transform="translate(0.01 0)"/></g><g class="k"><path class="h" d="M84.65,39.12a2.12,2.12,0,0,1-.16.83,2.19,2.19,0,0,1-1.17,1.17,2.17,2.17,0,0,1-1.66,0A2.1,2.1,0,0,1,80.49,40a2.09,2.09,0,0,1,0-1.65,2.1,2.1,0,0,1,1.17-1.17,2.16,2.16,0,0,1,2.83,1.17A2.1,2.1,0,0,1,84.65,39.12Z" transform="translate(0.01 0)"/></g><path class="l" d="M42.5,5.09c-.15-.66-.3-1.26-.42-1.93l6.46,3.13L42.08,9.47c.15-.64.28-1.28.42-1.92h-.15L39,7.26c-.08,0-.12,0-.12-.12V5.43Z" transform="translate(0.01 0)"/></svg>